HIERARCHY
ROOT Hips
{
  OFFSET 0.0000 0.0000 0.0000
  CHANNELS 6 Xposition Yposition Zposition Zrotation Xrotation Yrotation
  JOINT LeftHip
  {
    OFFSET 5.5000 0.0000 0.0000
    CHANNELS 3 Zrotation Xrotation Yrotation
    JOINT LeftKnee
    {
      OFFSET 0.0000 -17.5000 0.0000
      CHANNELS 3 Zrotation Xrotation Yrotation
      JOINT LeftAnkle
      {
        OFFSET 0.0000 -17.0000 0.0000
        CHANNELS 3 Zrotation Xrotation Yrotation
        End Site
        {
            OFFSET -0.0000 -4.7000 -2.0000
        }
      }
    }
  }
  JOINT RightHip
  {
    OFFSET -5.5000 0.0000 0.0000
    CHANNELS 3 Zrotation Xrotation Yrotation
    JOINT RightKnee
    {
      OFFSET 0.0000 -17.5000 0.0000
      CHANNELS 3 Zrotation Xrotation Yrotation
      JOINT RightAnkle
      {
        OFFSET 0.0000 -17.0000 0.0000
        CHANNELS 3 Zrotation Xrotation Yrotation
        End Site
        {
            OFFSET 0.0000 -4.7000 -2.0000
        }
      }
    }
  }
  JOINT Chest
  {
    OFFSET 0.0000 3.0000 -1.0000
    CHANNELS 3 Zrotation Xrotation Yrotation
    JOINT LeftCollar
    {
      OFFSET 0.0000 18.0000 1.0000
      CHANNELS 3 Zrotation Xrotation Yrotation
      JOINT LeftShoulder
      {
        OFFSET 6.5000 0.0000 0.0000
        CHANNELS 3 Zrotation Xrotation Yrotation
        JOINT LeftElbow
        {
          OFFSET 0.0000 -11.0000 0.0000
          CHANNELS 3 Zrotation Xrotation Yrotation
          JOINT LeftWrist
          {
            OFFSET -0.0000 -10.5000 0.0000
            CHANNELS 3 Zrotation Xrotation Yrotation
            End Site
            {
                OFFSET 0.0000 -6.0000 0.0000
            }
          }
        }
      }
    }
    JOINT RightCollar
    {
      OFFSET 0.0000 18.0000 1.0000
      CHANNELS 3 Zrotation Xrotation Yrotation
      JOINT RightShoulder
      {
        OFFSET -6.5000 0.0000 0.0000
        CHANNELS 3 Zrotation Xrotation Yrotation
        JOINT RightElbow
        {
          OFFSET 0.0000 -11.0000 0.0000
          CHANNELS 3 Zrotation Xrotation Yrotation
          JOINT RightWrist
          {
            OFFSET -0.0000 -10.5000 0.0000
            CHANNELS 3 Zrotation Xrotation Yrotation
            End Site
            {
                OFFSET 0.0000 -6.0000 0.0000
            }
          }
        }
      }
    }
    JOINT Neck
    {
      OFFSET 0.0000 18.0000 1.0000
      CHANNELS 3 Zrotation Xrotation Yrotation
      JOINT Head
      {
        OFFSET 0.0000 3.0000 0.0000
        CHANNELS 3 Zrotation Xrotation Yrotation
        End Site
        {
            OFFSET 0.0000 7.0000 0.0000
        }
      }
    }
  }
}
MOTION
Frames:	11
Frame Time:	0.033333
-0.4990 39.2404 49.8597 -0.67 3.30 -16.47 7.51 -12.91 3.21 -0.15 33.12 1.31 -6.45 4.46 11.53 3.39 2.74 -1.34 -0.02 20.20 0.71 2.90 -0.86 -21.75 -2.06 11.04 12.47 0.00 0.00 0.00 17.23 48.70 12.63 -0.00 -48.24 2.55 -8.47 2.43 -34.13 0.00 0.00 0.00 -35.31 3.76 -12.28 179.66 -77.46 175.67 -25.99 12.40 44.10 0.00 0.00 0.00 5.74 30.23 12.56 
-0.3114 38.9783 49.2455 -1.19 3.82 -14.52 7.84 -16.31 4.00 0.02 33.81 1.12 -6.51 8.02 13.21 4.21 4.01 -0.92 0.05 18.08 0.62 3.90 -0.71 -20.45 -2.73 11.11 15.88 0.00 0.00 0.00 15.97 47.91 16.25 -0.00 -50.62 3.10 -9.98 3.46 -34.58 0.00 0.00 0.00 -34.24 -4.33 -0.94 179.58 -79.02 175.80 -28.53 15.04 50.18 0.00 0.00 0.00 10.95 28.68 11.42 
-0.1249 38.8380 48.8087 -1.41 3.64 -12.68 5.79 -19.78 4.01 0.12 33.16 0.91 -5.73 8.03 14.78 6.81 5.34 -1.13 0.00 16.30 0.55 2.86 -2.93 -19.57 -1.98 11.08 17.65 0.00 0.00 0.00 14.92 47.55 18.83 0.00 -52.81 3.63 -10.65 4.43 -33.13 0.00 0.00 0.00 -32.80 -11.04 9.56 180.00 -82.96 176.46 -28.63 17.27 53.04 0.00 0.00 0.00 15.46 27.10 9.04 
0.3422 38.8129 48.1989 -1.47 3.62 -10.63 4.98 -23.24 4.40 0.14 32.51 0.84 -4.65 8.13 14.35 8.50 6.20 -1.36 -0.00 14.43 0.30 0.89 -3.21 -19.62 -1.52 11.04 19.27 0.00 0.00 0.00 12.28 47.20 21.24 -0.00 -54.50 3.75 -10.00 4.07 -31.56 0.00 0.00 0.00 -29.71 -17.01 21.06 0.00 -89.97 -3.10 -29.13 18.30 54.45 0.00 0.00 0.00 18.65 26.03 7.25 
0.8080 38.8696 47.2398 -1.31 3.92 -7.97 4.17 -26.71 4.70 0.06 31.72 0.77 -2.69 9.59 7.56 10.01 7.29 -1.26 -0.00 12.11 0.32 -1.61 -3.64 -21.94 -1.88 11.36 21.13 0.00 0.00 0.00 10.39 46.27 23.03 0.00 -55.84 3.63 -9.36 3.45 -30.36 0.00 0.00 0.00 -24.58 -21.89 31.51 0.00 -79.15 -2.52 -29.10 18.06 54.65 0.00 0.00 0.00 21.44 24.68 5.78 
1.2856 38.8623 45.8187 -1.62 4.33 -5.11 -0.93 -27.02 4.85 0.11 24.79 0.66 4.02 10.02 3.39 11.74 8.29 -1.58 0.00 10.87 0.16 -2.34 -3.91 -23.37 -1.38 11.31 22.35 0.00 0.00 0.00 9.72 44.56 24.21 0.00 -56.64 3.50 -9.40 3.64 -28.85 0.00 0.00 0.00 -17.44 -25.73 40.77 -0.00 -65.16 -1.82 -27.71 16.43 55.58 0.00 0.00 0.00 24.42 22.42 4.71 
3.6049 38.5317 45.3029 -2.37 4.75 -2.62 -5.31 -26.32 4.22 -0.00 18.67 0.47 9.19 7.60 2.57 12.69 8.45 -2.10 0.00 10.26 -0.07 -2.66 -5.84 -24.16 -0.11 11.10 23.01 0.00 0.00 0.00 9.75 42.64 25.14 0.00 -56.87 3.31 -9.91 3.77 -27.07 0.00 0.00 0.00 -8.63 -27.96 48.27 0.00 -48.23 -1.51 -25.59 12.78 58.51 0.00 0.00 0.00 26.58 20.37 4.01 
3.7568 38.4854 45.1212 -2.62 4.80 -0.87 -6.31 -23.94 3.53 0.00 16.20 0.03 9.97 5.76 2.68 13.04 8.69 -2.74 -0.01 9.99 -0.09 -3.19 -7.18 -24.66 0.71 10.71 23.55 0.00 0.00 0.00 10.21 41.61 26.96 0.00 -56.91 3.38 -10.82 3.74 -25.83 0.00 0.00 0.00 -0.56 -26.85 52.04 -0.51 -43.04 -1.70 -25.58 6.78 57.88 0.00 0.00 0.00 26.99 19.68 4.01 
3.7132 38.5441 44.9353 -2.96 4.60 1.00 -6.53 -22.09 3.41 0.00 14.08 -0.01 10.39 3.56 1.03 13.80 8.20 -2.84 0.00 10.61 -0.11 -3.57 -7.53 -26.44 1.21 10.39 23.78 0.00 0.00 0.00 9.31 41.81 31.55 -0.10 -56.56 3.66 -11.64 2.62 -25.17 0.00 0.00 0.00 3.80 -25.95 53.32 -0.58 -37.86 -1.44 -25.47 1.98 58.29 0.00 0.00 0.00 27.05 19.69 3.32 
3.6086 38.4830 45.0737 -2.51 4.62 3.22 -7.59 -21.55 3.22 0.02 13.00 -0.13 10.75 3.46 -0.48 14.01 8.04 -2.36 0.02 10.96 -0.09 -3.82 -7.37 -28.90 1.66 10.44 23.62 0.00 0.00 0.00 9.60 41.07 32.38 -0.44 -57.89 3.59 -10.95 2.70 -21.84 0.00 0.00 0.00 3.04 -24.11 51.65 -0.63 -32.67 -1.80 -24.65 -0.54 60.05 0.00 0.00 0.00 26.80 19.95 3.24 
3.1967 38.5392 45.6514 -1.93 4.86 4.84 -7.97 -20.86 2.48 -0.00 12.92 -0.26 10.12 2.90 -0.80 14.15 8.21 -2.64 0.02 11.25 -0.31 -3.64 -6.37 -29.48 1.85 10.43 22.28 0.00 0.00 0.00 11.35 39.91 31.25 -0.00 -60.84 3.70 -8.68 4.17 -17.12 0.00 0.00 0.00 -0.54 -21.33 42.87 0.05 -30.48 -2.34 -22.88 -6.30 62.51 0.00 0.00 0.00 25.17 20.08 2.01 
